<?xml version="1.0" standalone="no"?>
<!DOCTYPE svg PUBLIC "-//W3C//DTD SVG 20010904//EN"
 "http://www.w3.org/TR/2001/REC-SVG-20010904/DTD/svg10.dtd">
<svg version="1.0" xmlns="http://www.w3.org/2000/svg"
 width="512.000000pt" height="512.000000pt" viewBox="0 0 512.000000 512.000000"
 preserveAspectRatio="xMidYMid meet">
<metadata>
Created by potrace 1.11, written by Peter Selinger 2001-2013
</metadata>
<g transform="translate(0.000000,512.000000) scale(0.100000,-0.100000)"
fill="#000000" stroke="none">
<path d="M0 2560 l0 -2560 2560 0 2560 0 0 2560 0 2560 -2560 0 -2560 0 0
-2560z m3827 503 l-197 -198 -908 -5 c-881 -6 -909 -6 -974 -26 -134 -42 -156
-60 -651 -541 l-188 -183 -320 0 c-175 0 -319 2 -319 4 0 6 842 841 895 887
191 167 336 225 635 253 19 1 528 4 1130 4 l1095 2 -198 -197z m1023 189 c0
-4 -256 -262 -568 -575 l-568 -567 -334 0 -335 0 575 575 575 575 327 0 c181
0 328 -3 328 -8z m-1525 -692 l-200 -200 -530 0 c-291 0 -556 -4 -587 -10 -88
-14 -125 -36 -234 -142 l-101 -98 -299 0 -299 0 275 273 c329 326 358 346 555
367 39 4 419 8 845 9 l775 1 -200 -200z m960 -275 c0 -5 -15 -11 -32 -13 l-33
-3 0 -80 c0 -64 -3 -79 -15 -79 -12 0 -15 16 -15 80 l0 80 -30 0 c-20 0 -30 5
-30 15 0 13 13 15 78 13 43 -2 77 -7 77 -13z m104 -56 c12 -39 24 -69 27 -67
2 2 14 33 28 69 20 53 28 65 49 67 l25 3 1 -95 c1 -90 0 -96 -19 -96 -18 0
-20 7 -21 68 l-1 67 -22 -65 c-31 -88 -47 -88 -79 -3 l-26 68 0 -67 c-1 -54
-4 -68 -16 -68 -12 0 -15 17 -15 95 0 93 1 95 23 95 20 0 26 -10 46 -71z"/>
</g>
</svg>
